<svg xmlns="http://www.w3.org/2000/svg" viewBox="0 0 240 260" width="240" height="260"><rect width="240" height="260" fill="#FBFAF6"/><path d="M100,104 L100,175" stroke="#151515" stroke-width="5" stroke-linecap="round" stroke-linejoin="round" fill="none"/><path d="M100,175 L82,225 M100,175 L118,225" stroke="#151515" stroke-width="5" stroke-linecap="round" stroke-linejoin="round" fill="none"/><path d="M100,116 L64,108 L54,76 M100,116 L136,108 L146,76" stroke="#151515" stroke-width="5" stroke-linecap="round" stroke-linejoin="round" fill="none"/><circle cx="100" cy="72" r="32" fill="#fff" stroke="#151515" stroke-width="5" stroke-linecap="round" stroke-linejoin="round"/><path d="M68,66 A32,32 0 0 1 132,66 Z" fill="#F5B700" stroke="#151515" stroke-linecap="round" stroke-linejoin="round" stroke-width="4.5"/><path d="M128,64 Q150,62 158,70 L128,70 Z" fill="#F5B700" stroke="#151515" stroke-linecap="round" stroke-linejoin="round" stroke-width="4.5"/><circle cx="90" cy="80" r="6.5" fill="#fff" stroke="#151515" stroke-width="3"/><circle cx="90" cy="80" r="2.6" fill="#151515"/><circle cx="110" cy="80" r="6.5" fill="#fff" stroke="#151515" stroke-width="3"/><circle cx="110" cy="80" r="2.6" fill="#151515"/><ellipse cx="100" cy="98" rx="6" ry="8" fill="#151515"/><path d="M142,38 l10,-12 M150,52 l14,-4 M58,38 l-10,-12" fill="none" stroke="#151515" stroke-linecap="round" stroke-linejoin="round" stroke-width="4"/></svg>