<svg xmlns="http://www.w3.org/2000/svg" viewBox="0 0 240 260" width="240" height="260"><rect width="240" height="260" fill="#FBFAF6"/><path d="M100,106 L100,175" stroke="#151515" stroke-width="5" stroke-linecap="round" stroke-linejoin="round" fill="none"/><path d="M100,175 L82,225 M100,175 L118,225" stroke="#151515" stroke-width="5" stroke-linecap="round" stroke-linejoin="round" fill="none"/><path d="M100,118 L78,154 M100,118 L158,108" stroke="#151515" stroke-width="5" stroke-linecap="round" stroke-linejoin="round" fill="none"/><rect x="66" y="38" width="68" height="66" rx="20" fill="#fff" stroke="#151515" stroke-width="5" stroke-linecap="round" stroke-linejoin="round"/><circle cx="88" cy="70" r="11" fill="#fff" stroke="#151515" stroke-width="3.2"/><circle cx="112" cy="70" r="11" fill="#fff" stroke="#151515" stroke-width="3.2"/><path d="M99,70 L101,70" stroke="#151515" stroke-width="3.2"/><circle cx="88" cy="70" r="3.3" fill="#151515"/><circle cx="112" cy="70" r="3.3" fill="#151515"/><path d="M91,89 Q100,98 109,89" fill="none" stroke="#151515" stroke-linecap="round" stroke-linejoin="round" stroke-width="4"/><path d="M80,104 Q100,116 120,104 L120,114 Q100,126 80,114 Z" fill="#E4572E" stroke="#151515" stroke-linecap="round" stroke-linejoin="round" stroke-width="4"/><path d="M108,116 L116,146 L104,144 Z" fill="#E4572E" stroke="#151515" stroke-linecap="round" stroke-linejoin="round" stroke-width="4"/><g transform="rotate(-6 178 104)"><rect x="148" y="84" width="62" height="32" rx="6" fill="#fff" stroke="#151515" stroke-linecap="round" stroke-linejoin="round" stroke-width="3.5"/><text x="179" y="107" text-anchor="middle" font-family="Comic Neue, Comic Sans MS, cursive" font-weight="700" font-size="19" fill="#151515">$1.50</text></g></svg>